<?xml version="1.0" standalone="no"?>
<!DOCTYPE svg PUBLIC "-//W3C//DTD SVG 20010904//EN"
 "http://www.w3.org/TR/2001/REC-SVG-20010904/DTD/svg10.dtd">
<svg version="1.0" xmlns="http://www.w3.org/2000/svg"
 width="640.000000pt" height="640.000000pt" viewBox="0 0 640.000000 640.000000"
 preserveAspectRatio="xMidYMid meet">
<metadata>
Created by potrace 1.11, written by Peter Selinger 2001-2013
</metadata>
<g transform="translate(0.000000,640.000000) scale(0.100000,-0.100000)"
fill="#000000" stroke="none">
<path d="M4283 5588 c-6 -7 -32 -53 -58 -103 -26 -49 -51 -94 -55 -100 -4 -5
-28 -49 -54 -97 l-46 -86 67 -38 c38 -21 84 -46 103 -57 19 -11 51 -29 70 -39
19 -10 53 -30 75 -43 22 -13 55 -30 73 -39 36 -17 41 -25 15 -24 -21 0 -245
-10 -348 -17 -102 -6 -302 -17 -363 -19 -40 -2 -55 1 -61 13 -9 17 -8 131 4
391 10 238 11 226 -6 221 -28 -7 -335 -9 -391 -2 -63 8 -66 6 -62 -49 1 -19 5
-139 9 -266 3 -128 8 -255 10 -283 l4 -51 -32 -1 c-18 0 -61 -2 -97 -4 -152
-9 -354 -17 -479 -18 l-133 -2 7 -50 c4 -27 9 -106 11 -175 l4 -125 52 1 c29
0 82 3 118 7 85 9 264 20 318 21 23 0 42 4 42 9 0 4 8 3 19 -2 10 -6 20 -8 23
-6 3 3 52 8 110 11 l105 6 26 -73 c14 -41 34 -92 43 -114 10 -22 18 -42 19
-45 10 -49 213 -369 249 -392 17 -11 -2 -24 -84 -58 -188 -79 -508 -180 -645
-205 -11 -1 -56 -10 -100 -19 -44 -8 -93 -18 -110 -21 -16 -2 -39 -7 -50 -9
-33 -6 -193 -27 -237 -31 -16 -1 -28 2 -28 7 0 11 -263 138 -293 141 -17 2
-25 -11 -49 -73 -29 -77 -78 -202 -99 -255 -7 -16 -13 -34 -15 -40 -2 -9 -116
-292 -147 -365 -5 -14 -11 -29 -12 -35 -2 -9 -95 -237 -115 -280 -5 -11 -40
-94 -78 -185 -39 -91 -87 -201 -106 -245 -20 -44 -49 -107 -64 -140 -73 -163
-284 -569 -409 -789 -40 -71 -73 -133 -73 -137 0 -5 -3 -9 -7 -9 -5 0 -19 -23
-32 -50 -14 -28 -28 -50 -32 -50 -4 0 -11 -10 -15 -22 -3 -13 -15 -35 -25 -50
-28 -38 -24 -44 29 -45 212 -3 395 -40 541 -110 40 -19 77 -31 81 -26 5 4 27
69 50 143 23 74 48 155 57 180 8 25 16 52 18 60 2 8 22 74 45 145 23 72 55
173 71 225 16 52 99 302 185 555 85 253 157 465 158 470 2 6 6 19 10 30 5 11
12 31 16 45 4 14 11 34 16 45 4 11 8 25 9 30 4 13 85 255 92 275 4 8 7 17 8
20 6 24 18 59 25 75 8 19 52 150 56 170 2 6 12 34 22 63 11 28 18 52 16 52 -3
0 3 14 11 30 l16 31 52 -28 c94 -51 201 -169 249 -275 16 -37 18 -37 60 -32
65 9 290 60 404 92 l102 29 -1 -31 c0 -17 3 -125 7 -241 4 -115 8 -244 9 -285
l2 -74 -60 -2 c-33 -2 -98 -5 -145 -9 -87 -6 -342 -14 -464 -15 l-68 0 7 -52
c5 -41 14 -207 15 -301 0 -4 12 -5 28 -3 15 3 74 7 132 11 58 4 121 8 140 10
42 5 170 12 340 21 69 3 129 7 134 7 5 1 24 -34 41 -78 46 -118 53 -134 89
-205 59 -116 196 -330 218 -338 19 -8 5 -25 -39 -44 -48 -21 -234 -87 -263
-93 -8 -2 -35 -8 -60 -15 -25 -7 -46 -12 -47 -12 -2 1 -17 -4 -35 -9 -18 -5
-49 -12 -68 -15 -19 -3 -51 -9 -70 -14 -33 -8 -70 -14 -156 -26 -22 -2 -57 -7
-79 -10 -22 -3 -74 -7 -115 -9 -41 -3 -75 -5 -75 -5 0 -3 -37 -8 -110 -14 -43
-4 -97 -9 -120 -11 -22 -3 -67 -7 -100 -10 -122 -12 -160 -16 -163 -19 -2 -2
39 -25 90 -51 128 -65 199 -117 258 -189 46 -56 110 -170 110 -195 0 -9 10
-14 30 -13 3 0 37 3 75 8 39 4 81 8 95 10 14 1 25 3 25 4 0 1 14 4 30 6 161
24 517 117 635 167 14 6 27 11 30 11 21 5 238 98 334 144 l120 58 85 -64 c47
-35 94 -70 104 -78 9 -8 19 -14 21 -14 2 0 44 -24 93 -54 214 -128 498 -233
733 -271 25 -4 54 -9 65 -11 187 -37 280 -11 333 92 19 37 24 57 37 136 3 18
8 43 10 54 18 81 23 315 10 409 -3 28 -6 62 -6 78 l1 27 -82 0 c-46 0 -99 1
-118 4 -75 10 -115 18 -126 27 -7 5 -16 9 -20 8 -5 -1 -16 1 -24 4 -8 4 -35
13 -59 22 l-43 15 7 -82 c10 -130 19 -299 16 -324 -1 -8 -31 -3 -88 13 -116
32 -101 27 -188 60 -68 25 -247 115 -303 150 -49 31 -60 53 -27 53 7 0 15 4
17 8 2 5 26 23 53 42 113 76 353 262 440 341 17 15 53 47 80 72 80 72 175 165
175 170 0 3 -30 28 -67 55 -74 55 -141 112 -133 113 3 0 88 3 190 5 102 3 201
6 220 7 39 2 37 -8 24 117 -3 30 -6 97 -6 148 l-1 92 -73 -2 c-41 -2 -74 -5
-74 -8 0 -3 -19 -5 -43 -6 -31 0 -246 -12 -287 -16 -27 -2 -22 14 25 96 30 52
55 99 55 103 0 5 -19 19 -42 31 -24 12 -65 34 -93 50 -56 32 -161 90 -215 118
-19 11 -36 22 -38 27 -2 4 -8 7 -14 7 -5 0 -62 29 -125 65 -63 36 -119 65
-124 65 -5 0 -9 5 -9 10 0 6 -3 9 -7 8 -5 -1 -22 6 -40 15 l-32 17 -111 -201
c-61 -111 -110 -202 -108 -204 2 -2 94 -54 206 -115 111 -62 200 -115 197
-118 -3 -3 -29 -7 -58 -8 -207 -9 -310 -15 -362 -19 -33 -2 -126 -7 -206 -11
-137 -6 -146 -5 -151 12 -7 28 3 386 16 576 l3 37 -56 -6 c-53 -6 -243 -8
-321 -3 l-35 2 35 15 c19 8 40 16 45 18 6 1 24 8 40 14 17 7 35 14 40 16 6 1
26 8 45 16 19 7 38 12 43 11 4 -1 7 2 7 8 0 5 6 10 14 10 7 0 40 12 72 26 103
45 229 104 244 114 8 5 40 21 70 35 l54 26 30 -23 c60 -45 248 -167 267 -173
10 -4 19 -11 19 -16 0 -5 7 -9 16 -9 9 0 30 -10 47 -22 18 -13 32 -22 32 -20
0 2 27 -9 60 -24 150 -66 335 -124 476 -149 18 -3 36 -8 40 -10 4 -3 37 -7 74
-10 37 -3 71 -8 76 -11 5 -3 42 -6 82 -6 75 -1 135 20 175 60 24 24 59 108 67
162 23 147 30 226 29 310 0 96 -13 272 -20 279 -2 2 -50 5 -106 7 -142 3 -201
15 -311 63 l-49 21 6 -77 c4 -43 9 -127 12 -188 4 -60 7 -121 8 -135 1 -16 -4
-25 -14 -24 -74 2 -298 73 -421 133 -109 52 -189 99 -189 110 0 5 22 23 49 40
43 28 179 125 206 148 6 5 28 22 50 38 22 17 42 32 45 35 3 3 25 21 50 41 25
20 56 47 70 58 14 12 45 39 68 59 50 42 70 60 170 153 l72 66 -78 61 c-42 33
-88 72 -100 85 l-23 24 78 3 c43 1 132 3 198 5 66 2 132 4 148 4 24 1 27 4 22
29 -12 66 -18 134 -19 230 l0 103 -92 -6 c-51 -3 -100 -7 -110 -9 -11 -2 -66
-7 -124 -10 -58 -4 -122 -9 -143 -12 l-39 -4 48 87 c26 49 52 96 58 105 6 9 8
19 6 21 -3 2 -57 33 -120 67 -176 97 -184 101 -197 112 -7 6 -13 7 -13 4 0 -4
-12 1 -27 12 -16 10 -41 26 -58 34 -16 8 -93 49 -171 91 -77 42 -143 77 -146
77 -3 0 -10 -6 -15 -12z m377 -953 c0 -10 -202 -203 -283 -270 -27 -22 -54
-45 -60 -50 -25 -22 -135 -102 -190 -138 l-58 -39 -20 26 c-11 14 -27 32 -35
40 -53 54 -224 342 -224 379 0 9 13 14 38 14 38 1 246 12 337 18 79 5 325 18
377 19 27 1 48 3 48 6 0 4 16 4 35 2 19 -2 35 -5 35 -7z m0 -2256 c0 -9 -157
-166 -231 -230 -97 -86 -168 -141 -264 -208 -85 -59 -89 -60 -108 -44 -16 15
-121 160 -165 228 -22 34 -104 206 -100 210 3 3 107 10 298 20 41 2 116 6 165
9 50 3 144 8 210 11 66 4 121 8 123 9 5 6 72 1 72 -5z"/>
<path d="M1460 5514 c-25 -19 -52 -40 -60 -47 -8 -7 -33 -26 -55 -42 -22 -16
-42 -33 -45 -36 -3 -3 -23 -19 -45 -35 -74 -54 -154 -119 -152 -125 1 -3 69
-56 151 -118 82 -62 154 -118 161 -124 6 -7 24 -21 39 -32 15 -11 37 -28 49
-38 12 -10 44 -37 71 -60 95 -80 216 -190 313 -283 40 -38 73 -68 73 -65 0 3
6 -3 13 -14 13 -16 17 -17 45 -4 18 8 32 16 32 20 0 3 16 11 35 19 19 8 35 17
35 20 0 3 16 12 35 20 19 8 35 17 35 21 0 4 9 11 21 14 18 6 150 80 189 106 8
5 23 12 33 15 31 11 29 15 -109 144 -83 78 -223 204 -279 251 -22 19 -42 36
-45 39 -3 3 -41 35 -85 70 -44 36 -85 69 -92 75 -7 5 -18 15 -25 20 -10 8
-231 177 -283 216 -6 4 -30 -7 -55 -27z"/>
<path d="M1070 4432 c0 -4 -15 -16 -32 -27 -18 -10 -38 -24 -45 -29 -6 -6 -57
-42 -113 -81 -56 -38 -128 -89 -161 -113 l-59 -42 107 -87 c60 -48 110 -90
113 -93 3 -3 41 -35 85 -70 44 -35 82 -67 85 -70 3 -3 25 -21 50 -40 25 -19
47 -37 50 -40 3 -3 30 -25 60 -50 30 -25 57 -47 60 -50 4 -4 82 -68 234 -190
10 -8 25 -21 33 -29 12 -11 17 -11 32 3 10 9 22 16 28 16 6 0 13 4 15 8 3 9
176 130 209 147 10 5 19 13 19 17 0 5 6 8 14 8 8 0 16 4 18 8 2 4 27 23 55 42
44 27 51 36 41 48 -7 8 -73 64 -148 125 -74 61 -137 114 -140 117 -3 3 -79 66
-170 140 -201 163 -284 232 -330 274 -62 54 -110 80 -110 58z"/>
</g>
</svg>
