<?xml version="1.0" standalone="no"?>
<!DOCTYPE svg PUBLIC "-//W3C//DTD SVG 20010904//EN"
 "http://www.w3.org/TR/2001/REC-SVG-20010904/DTD/svg10.dtd">
<svg version="1.0" xmlns="http://www.w3.org/2000/svg"
 width="1733.000000pt" height="1733.000000pt" viewBox="0 0 1733.000000 1733.000000"
 preserveAspectRatio="xMidYMid meet">
<metadata>
Created by potrace 1.11, written by Peter Selinger 2001-2013
</metadata>
<g transform="translate(0.000000,1733.000000) scale(0.100000,-0.100000)"
fill="#000000" stroke="none">
<path d="M4705 16604 c-201 -42 -352 -138 -471 -298 l-28 -39 34 9 c19 5 73 9
120 9 74 -1 94 -5 150 -32 36 -17 85 -50 108 -74 44 -44 112 -149 112 -173 0
-7 3 -16 7 -20 10 -10 30 -91 39 -156 l7 -55 -29 35 c-64 77 -81 94 -130 131
-72 53 -139 73 -222 66 -80 -7 -153 -33 -215 -76 -25 -17 -52 -31 -59 -31 -7
-1 11 -12 39 -26 30 -14 68 -44 87 -67 32 -40 91 -146 84 -152 -2 -2 -59 -25
-128 -53 -388 -154 -735 -372 -1049 -660 -153 -141 -299 -297 -399 -427 -26
-33 -54 -69 -64 -79 -10 -11 -18 -23 -18 -27 0 -4 -6 -14 -14 -22 -8 -7 -50
-67 -93 -133 -136 -203 -251 -416 -339 -624 -25 -58 -49 -114 -54 -125 -49
-107 -164 -496 -195 -660 -22 -116 -54 -310 -60 -360 -3 -33 -8 -69 -10 -80
-2 -11 -4 -27 -4 -36 -2 -29 -111 -138 -195 -194 -46 -30 -86 -55 -89 -55 -3
0 -34 -13 -69 -29 -35 -16 -92 -38 -128 -49 -58 -18 -87 -23 -193 -37 -16 -3
-79 -7 -140 -10 -216 -10 -362 -21 -412 -31 -183 -35 -294 -84 -415 -185 -118
-98 -186 -205 -228 -359 -33 -118 -34 -128 -36 -255 -3 -187 42 -329 155 -499
64 -95 233 -254 361 -340 107 -71 312 -180 478 -255 41 -19 93 -42 115 -52 84
-38 210 -89 220 -89 5 0 22 -6 36 -14 46 -23 395 -136 469 -151 8 -2 53 -13
100 -24 105 -26 110 -27 240 -47 104 -15 326 -21 386 -10 29 5 34 2 70 -52 21
-31 41 -59 44 -62 3 -3 40 -48 83 -100 230 -285 477 -511 772 -707 171 -114
407 -243 488 -269 12 -4 45 -17 72 -30 132 -59 395 -141 554 -170 52 -10 52
-16 -16 -104 -237 -309 -507 -782 -645 -1130 -17 -41 -36 -88 -43 -105 -14
-32 -55 -143 -60 -160 -1 -5 -5 -19 -9 -30 -19 -49 -75 -232 -81 -262 -1 -10
-10 -45 -19 -78 -16 -58 -19 -69 -31 -125 -14 -63 -45 -224 -50 -262 -3 -24
-8 -54 -10 -68 -2 -14 -7 -47 -9 -75 -3 -27 -8 -73 -11 -102 -12 -101 -15
-201 -14 -403 1 -306 9 -424 50 -690 32 -213 84 -431 156 -655 34 -105 89
-256 118 -320 8 -16 35 -77 60 -135 26 -58 62 -132 80 -165 18 -33 49 -91 70
-130 21 -38 44 -77 51 -86 8 -8 14 -18 14 -21 0 -18 139 -225 250 -373 80
-106 86 -113 194 -239 82 -96 348 -362 426 -426 30 -25 73 -61 95 -81 265
-234 741 -531 1160 -724 114 -52 287 -126 305 -130 8 -2 37 -13 65 -25 56 -24
394 -138 500 -169 297 -86 800 -192 1025 -216 30 -3 66 -8 80 -10 49 -9 86
-14 150 -20 36 -3 81 -8 100 -10 61 -7 183 -18 235 -20 28 -2 111 -7 185 -11
172 -11 988 -11 1185 0 213 11 249 13 350 21 90 7 126 10 220 20 28 3 73 7
100 10 79 8 158 16 185 20 14 2 52 7 85 11 33 3 69 8 80 10 11 3 40 7 65 10
25 3 52 7 60 9 8 2 35 7 60 10 57 8 66 9 230 39 563 103 1086 255 1605 466
197 80 513 235 714 350 286 164 645 408 801 544 20 17 56 47 80 66 25 19 63
51 85 71 22 19 58 51 80 70 62 53 362 355 442 444 422 470 828 1099 1085 1680
15 33 44 96 64 140 21 44 39 82 39 85 1 3 11 25 22 50 91 200 202 471 263 647
36 99 130 390 135 413 2 8 17 62 33 120 33 113 95 361 108 430 8 49 17 95 20
105 4 15 43 243 49 290 3 22 8 51 10 65 2 14 7 43 9 65 12 102 19 162 21 190
1 17 6 77 11 135 16 206 9 704 -11 845 -2 17 -7 53 -11 80 -10 82 -12 96 -28
185 -27 150 -42 214 -73 315 -86 280 -197 490 -326 618 -82 82 -98 94 -176
131 -59 28 -75 31 -156 30 -72 0 -101 -5 -145 -24 -95 -42 -166 -98 -250 -200
-25 -30 -49 -60 -55 -67 -14 -17 -25 -31 -65 -83 -95 -125 -232 -280 -353
-400 -329 -330 -654 -531 -1001 -620 -134 -34 -233 -45 -416 -44 -164 0 -282
13 -435 48 -119 26 -313 84 -415 123 -117 45 -324 131 -355 147 -16 9 -33 16
-37 16 -9 0 -514 251 -610 303 -35 19 -121 65 -193 102 -227 119 -318 166
-400 210 -128 69 -722 367 -820 412 -204 94 -255 117 -355 160 -58 25 -118 51
-135 58 -42 19 -182 75 -230 92 -22 8 -53 21 -70 28 -89 40 -482 175 -680 234
-114 34 -333 89 -420 106 -113 22 -258 46 -305 50 -30 3 -66 8 -80 10 -55 10
-239 23 -342 24 l-47 1 34 73 c65 143 83 183 115 267 17 47 36 94 40 105 49
119 150 493 175 645 3 19 10 60 15 90 17 103 20 125 26 185 3 33 7 71 9 85 23
135 23 693 1 830 -3 14 -7 52 -11 85 -7 69 -29 206 -50 315 -9 41 -17 85 -20
97 -9 51 -69 266 -102 368 -148 461 -407 928 -716 1290 -144 169 -366 384
-507 489 -30 22 -61 46 -67 53 -63 58 -522 333 -558 333 -6 0 -15 4 -21 9 -24
24 -406 166 -499 186 -11 2 -56 13 -100 24 -133 32 -278 57 -396 67 l-76 7
-23 91 c-22 86 -73 211 -116 284 -28 49 -126 172 -165 207 -108 98 -270 183
-384 201 -43 7 -196 12 -220 8z"/>
</g>
</svg>
